<svg viewBox="300 440 1460 1030" xmlns="http://www.w3.org/2000/svg"><path d="M592.756 451.534C607.446 456.499 657.184 489.058 671.443 498.799C769.003 565.441 863.089 643.066 953.259 719.463C1055.22 805.574 1156.37 892.658 1256.67 980.703C1291.71 1011.27 1326.28 1042.06 1360.8 1073.24C1369.64 1080.2 1384.16 1094.09 1396.09 1093.19C1407.01 1092.36 1405.23 1071.22 1403.28 1063.42C1398.63 1044.81 1392.79 1026.03 1387.3 1007.48C1379.04 980.283 1371.38 952.906 1364.31 925.373C1334.76 815.228 1308.92 704.125 1286.82 592.248C1309.59 638.521 1331.53 686.976 1353.9 733.702L1518.72 1072.63C1584.09 1203.81 1652.86 1342.01 1743.95 1456.85C1708.42 1457.78 1662.85 1446.63 1628.74 1436.53C1516.24 1403.21 1417.09 1335.83 1325.14 1264.75C1277.81 1228.16 1232.82 1188.48 1187.04 1150C1122.64 1095.88 1013.45 998.506 928.898 986.865C913.982 984.805 897.15 985.801 884.943 995.586C856.497 1018.41 855.333 1086.74 852.848 1121.33C851.669 1137.82 850.328 1154.3 848.824 1170.76C843.419 1130.88 839.615 1091.07 829.814 1051.98C811.028 986.426 781.076 973.737 718.528 957.527C739.878 956.545 788.28 951.281 802.382 936.363C834.977 901.88 825.27 810.774 826.595 767.381C829.604 777.035 830.724 787.488 833.984 797.421C848.625 842.019 849.943 912.064 891.111 941.364C904.081 950.028 919.18 950.871 933.869 954.685C1023.87 978.047 1101.6 1033.63 1177.96 1084.36C1194.72 1095.49 1217.79 1116.26 1233.71 1123.84C1226.57 1114.19 1209.49 1100.76 1199.91 1091.5C1149.79 1043.42 1098.39 996.689 1045.76 951.36L782.916 716.939C797.978 777.312 794.516 858.925 780.959 919.594C734.21 947.335 719.419 944.685 671.052 955.921C701.438 960.977 751.437 980.674 771.752 1003.76C767.227 1032.38 760.863 1061.92 756.29 1090.38C746.896 1148.84 742.828 1224.54 779.605 1274.44C815.5 1323.14 872.451 1343.96 929.801 1353.06C893.095 1354.55 850.117 1353.46 813.15 1353.38L622.125 1353.36L427.691 1353.46C392.255 1353.5 351.255 1354.51 316.137 1353.04C451.097 1321.21 556.516 1232.1 602.308 1100.62C657.817 941.217 666.354 717.173 627.702 553.447C619.482 518.395 607.774 484.254 592.756 451.534Z" fill="currentColor"/></svg>
